<svg class="logo" version="1.1" xmlns:sketch="http://www.bohemiancoding.com/sketch/ns" xmlns="http://www.w3.org/2000/svg" xmlns:xlink="http://www.w3.org/1999/xlink" x="0px" y="0px" width="93px" height="20px" viewBox="0 0 93 20" enable-background="new 0 0 93 20" xml:space="preserve">
          <path sketch:type="MSShapeGroup" fill="#FFFDFD" d="M32.855,12.867L27.893,0.951
              c-0.009-0.021-0.017-0.043-0.026-0.064l-0.015-0.033H27.85C27.605,0.352,27.096,0,26.5,0c-0.633,0-1.172,0.395-1.393,0.949
              L20.169,12.82C20.064,13.025,20,13.254,20,13.5v0.001V18.5c0,0.828,0.671,1.5,1.5,1.5s1.5-0.672,1.5-1.5V15h7v3.5
              c0,0.828,0.671,1.5,1.5,1.5s1.5-0.672,1.5-1.5v-4.999V13.5C33,13.273,32.945,13.061,32.855,12.867L32.855,12.867z M23.745,12
              l2.757-6.62L29.255,12H23.745z M92.855,12.868L87.893,0.953c-0.009-0.023-0.019-0.046-0.027-0.067l-0.014-0.032h-0.004
              C87.605,0.352,87.096,0,86.5,0c-0.633,0-1.172,0.395-1.393,0.949l-4.939,11.874C80.064,13.027,80,13.255,80,13.5v0.001V18.5
              c0,0.828,0.672,1.5,1.5,1.5s1.5-0.672,1.5-1.5V15h7v3.5c0,0.828,0.672,1.5,1.5,1.5s1.5-0.672,1.5-1.5v-4.999V13.5
              C93,13.273,92.945,13.061,92.855,12.868z M83.746,12l2.756-6.62L89.256,12H83.746z M13,5.75C13,2.575,10.425,0,7.25,0H1.5
              C0.671,0,0,0.671,0,1.5v17C0,19.328,0.671,20,1.5,20h5.75c3.175,0,5.75-2.574,5.75-5.75c0-1.688-0.73-3.198-1.887-4.25
              C12.27,8.948,13,7.438,13,5.75z M7.25,17H3v-5.5h4.25c1.519,0,2.75,1.23,2.75,2.75S8.769,17,7.25,17L7.25,17z M7.25,8.5H3V3h4.25
              C8.769,3,10,4.23,10,5.75S8.769,8.5,7.25,8.5z M46.5,3C48.434,3,50,4.566,50,6.5C50,7.329,50.672,8,51.5,8S53,7.329,53,6.5
              C53,2.91,50.09,0,46.5,0S40,2.91,40,6.5v7c0,3.59,2.91,6.5,6.5,6.5s6.5-2.91,6.5-6.5c0-0.828-0.672-1.5-1.5-1.5S50,12.672,50,13.5
              c0,1.934-1.566,3.5-3.5,3.5S43,15.434,43,13.5v-7C43,4.566,44.566,3,46.5,3z M66.5,3C68.434,3,70,4.566,70,6.5
              C70,7.329,70.672,8,71.5,8S73,7.329,73,6.5C73,2.91,70.09,0,66.5,0S60,2.91,60,6.5v7c0,3.59,2.91,6.5,6.5,6.5s6.5-2.91,6.5-6.5
              c0-0.828-0.672-1.5-1.5-1.5S70,12.672,70,13.5c0,1.934-1.566,3.5-3.5,3.5S63,15.434,63,13.5v-7C63,4.566,64.566,3,66.5,3z">
          </path>
        </svg>