<svg version="1.1" id="stand" xmlns="http://www.w3.org/2000/svg" xmlns:xlink="http://www.w3.org/1999/xlink" x="0px" y="0px" width="200px" height="143px" viewBox="205 323.5 202 145" enable-background="new 205 323.5 202 145" xml:space="preserve">
                <path class="line-stand" fill="none" stroke="#FDFDFD" stroke-linecap="round" stroke-linejoin="round" stroke-miterlimit="10" d="M321.6,398.3
    c0.3,0,0.5-0.1,0.8-0.1" style="stroke-dasharray: 1, 3; stroke-dashoffset: 0;"></path>
                <path class="line-stand" fill="none" stroke="#FDFDFD" stroke-linecap="round" stroke-linejoin="round" stroke-miterlimit="10" d="M320.4,398.4
    L320.4,398.4c0.4,0,0.8,0,1.2-0.1" style="stroke-dasharray: 2, 4; stroke-dashoffset: 0;"></path>
                <path class="line-stand" fill="none" stroke="#FDFDFD" stroke-linecap="round" stroke-linejoin="round" stroke-miterlimit="10" d="M241.9,375.7
    c-0.3,3.8-0.5,7.8-0.8,11.6c0,0.5-0.1,1-0.1,1.5c-0.4,5.8-0.8,11.5-1.2,17.1c-0.1,2.6-0.4,5.1-0.5,7.7c-0.1,1.3-0.1,2.6-0.3,3.7
    c-0.1,1.3-0.1,2.6-0.3,3.7c0,0.8,0.3,1.8,0.8,2.4c0.3,0.4,1.2,0.8,1.5,0.9c1,0.6,2.2,1.2,3.1,1.8c2.2,1.2,4.2,2.3,6.4,3.3
    c2.8,1.5,5.5,2.8,8.3,4.3c6.3,3.3,12.4,6.6,18.7,10c4.5,2.4,9,4.7,13.4,7.2c0.5,0.3,1,0.5,1.3,0.9c0.5,0.6,0.8,1.3,0.8,2
    c0,0.5-0.3,3.5-0.3,4c-0.1,1.3-0.3,2.7-0.4,3.8c-0.1,0.6-0.1,1.3-0.3,2c-0.1,0.5-0.4,1-0.9,1.2c-1.9,0.5-3.8,1-5.8,1.5" style="stroke-dasharray: 128, 130; stroke-dashoffset: 0;"></path>
                <path class="line-stand" fill="none" stroke="#FDFDFD" stroke-linecap="round" stroke-linejoin="round" stroke-miterlimit="10" d="M390,439.2
    c1.4-0.4,2.8-0.8,4.2-1.2c0.5-0.1,0.9-0.6,1-1.2s0.1-1.2,0.3-1.8c0.1-1.2,0.4-2.3,0.5-3.6c0.1-0.6,0.1-1.3,0.3-1.9
    c0.1-0.6,0.3-1.3,0-1.9c-0.5-1.4-1.5-1.7-2.7-2.2c-4.6-1.9-9-3.6-13.3-5.5c-8.7-3.6-17.6-7.3-26.3-10.9c-2.3-0.9-4.3-1.9-6.6-2.8
    c-1-0.5-2-0.9-3.2-1.4c-0.5-0.1-1.2-0.4-1.7-0.6c-0.5-0.3-1.2-0.4-1.5-1c-0.8-1-0.4-2.4-0.3-3.5c0.1-1,0.3-2.3,0.4-3.5
    c0.4-2.4,0.6-4.7,0.9-7.2c1-9.5,2-18.9,3.2-28.4" style="stroke-dasharray: 120, 122; stroke-dashoffset: 0;"></path>
                <path class="line-stand" fill="none" stroke="#FDFDFD" stroke-linecap="round" stroke-linejoin="round" stroke-miterlimit="10" d="M293.1,426.6
    L293.1,426.6c-1.3-0.4-2.6-0.8-3.7-1.2c-0.6-0.1-0.9-0.8-1-1.4c-0.1-0.6,0-1.2,0-1.8v-3.5c0-1.2,0-2.4,0-3.5v-1.8c0-0.6,0-1.2,0-1.8
    " style="stroke-dasharray: 19, 21; stroke-dashoffset: 0;"></path>
                <path class="line-stand" fill="none" stroke="#FDFDFD" stroke-linecap="round" stroke-linejoin="round" stroke-miterlimit="10" d="M211.9,333.3
    c1.9-0.1,3.7-0.3,5.6-0.5c0.4,0,1.2,0.5,1.4,0.6c0.4,0.3,0.8,0.5,1.2,0.6c0.8,0.5,1.5,0.9,2.2,1.4c1.5,0.9,2.9,1.8,4.5,2.8
    c2.9,1.9,6,3.6,9,5.5c6,3.6,12,7.4,18,11c12,7.4,24,14.6,36.1,22" style="stroke-dasharray: 91, 93; stroke-dashoffset: 0;"></path>
                <path class="line-stand" fill="none" stroke="#FDFDFD" stroke-linecap="round" stroke-linejoin="round" stroke-miterlimit="10" d="M316,325.3
    c1.4-0.1,2.8-0.3,4.2-0.4c0.4,0,1.2,0.4,1.4,0.5c0.4,0.1,0.8,0.4,1.2,0.6c0.8,0.3,1.5,0.6,2.4,1c1.5,0.8,3.1,1.5,4.6,2.3
    c3.1,1.5,6.4,3.1,9.5,4.6c6.4,3.1,12.7,6.3,19.1,9.3c12.7,6.3,25.2,12.5,38,18.8" style="stroke-dasharray: 89, 91; stroke-dashoffset: 0;"></path>
                <path class="line-stand" fill="none" stroke="#FDFDFD" stroke-linecap="round" stroke-linejoin="round" stroke-miterlimit="10" d="M398.5,356.9
    c1.4-0.3,2.8-0.4,4.2-0.6c0.5,0,1.2,0.3,1.5,0.5c0.5,0.3,0.9,0.4,1.3,0.8c0.8,1,0.5,1.9,0.4,2.8c-0.3,2-0.6,4-0.9,6
    c-0.3,2-0.6,4-0.9,6c-0.1,1-0.3,2-0.4,2.9c-0.1,0.9-0.3,2.3-1.5,2.4c-1.4,0.3-2.8,0.5-4.2,0.8" style="stroke-dasharray: 33, 35; stroke-dashoffset: 0;"></path>
                <path class="line-stand" fill="none" stroke="#FDFDFD" stroke-linecap="round" stroke-linejoin="round" stroke-miterlimit="10" d="M291.4,371.8
    c2-0.3,3.8-0.5,5.9-0.9c0.5,0,1.3,0.4,1.7,0.6c0.5,0.3,0.9,0.6,1.3,1.2c0.6,1.2,0.4,2.3,0.3,3.3c-0.1,0.8-0.1,1.5-0.3,2.3
    c0,0.5-0.1,1-0.1,1.4c-0.1,1-0.3,2-0.3,3.1c-0.3,2.3-0.4,4.6-0.6,6.9c-0.1,1.2-0.3,2.3-0.3,3.3c-0.1,0.9,0,2.7-1.4,2.8
    c-1.9,0.4-3.8,0.6-5.8,1" style="stroke-dasharray: 40, 42; stroke-dashoffset: 0;"></path>
                <path class="line-stand" fill="none" stroke="#FDFDFD" stroke-linecap="round" stroke-linejoin="round" stroke-miterlimit="10" d="M220.1,419.1
    c0.1-0.1,0.1-0.1,0.3-0.3c0,0,0-0.1,0.1-0.1c0.1-0.4,0.1-0.6,0.1-1c0-0.1,0-0.4-0.1-0.5c0,0,0-0.1-0.1-0.1c-0.1-0.5-0.4-0.9-0.8-1
    c-0.2-8-0.4-15.8-0.6-23.8c-1.3-0.4-2.6-0.6-3.7-1c-1.2,0.1-2.4,0.4-3.5,0.5c-0.6,0.1-1.2,0.1-1.8,0.3c-0.6,0.3-1.2,0.3-1.7,0.5
    l-0.1,0.1c-0.4,0.4-0.6,0.9-0.8,1.4c-0.1,0.6,0,1.2,0,1.8c0,1.3,0,2.4,0.1,3.6c0,1.7,0.1,3.1,0.1,4.7c0.1,3.2,0.1,6.5,0.3,9.6
    c0.1,4.9,0.3,9.6,0.4,14.4c0,2.4,0.1,4.7,0.1,7.3c0,0.9,0,1.8,0.1,2.6c0,0.4,0,0.8,0,1.2c0,0.6,0,1.3,0.1,1.8s0.5,1,1,1.3
    c1.2,0.4,2.3,0.9,3.5,1.3" style="stroke-dasharray: 93, 95; stroke-dashoffset: 0;"></path>
                <path class="line-stand" fill="none" stroke="#FDFDFD" stroke-linecap="round" stroke-linejoin="round" stroke-miterlimit="10" d="M219.7,419.1
    c0.3,0.1,0.4,0,0.5-0.1" style="stroke-dasharray: 1, 3; stroke-dashoffset: 0;"></path>
                <path class="line-stand" fill="none" stroke="#FDFDFD" stroke-linecap="round" stroke-linejoin="round" stroke-miterlimit="10" d="M261.5,384.2
    c-0.4-0.1-0.9-0.4-1.3-0.5c-6.1-2.8-12.3-5.4-18.4-8.1l0,0c-1-0.4-2-0.9-2.9-1.3c-0.4-0.1-0.9-0.4-1.3-0.6c-0.5-0.1-0.9,0.1-1.2,0.5
    c-0.4,0.7-0.4,1.3-0.4,2c0,0.8-0.1,1.4-0.1,2.2c-0.1,2.8-0.4,5.5-0.5,8.3c-0.4,5.5-0.6,11-1,16.5c-0.4,5.6-0.6,11.1-1,16.8
    c0,0.8-0.1,1.4-0.1,2.2c0,0.8,0,1.4,0.4,2.2c0.3,0.6,0.5,0.9,1.2,1.2c0.4,0.3,0.9,0.5,1.3,0.8c1.8,1,3.5,1.9,5.2,2.8
    c7.3,4,14.4,7.9,21.9,11.9c3.7,2,7.5,4.1,11.3,6.1c2,1,3.8,2.2,5.9,3.1c1,0.5,2,1.2,2.9,1.7c0.5,0.3,1,0.5,1.5,0.8
    c0.5,0.3,1,0.5,1.5,0.9c0.6,0.6,0.9,1.3,1,2c0.1,0.8,0,1.5-0.1,2.2c-0.1,1.5-0.3,2.8-0.4,4.3c0,0.8-0.1,1.5-0.3,2.2
    c0,0.6,0,1.4-0.4,2c-0.1,0.3-0.4,0.5-0.6,0.6c-0.1,0-0.4,0.1-0.6,0c-0.5-0.1-1-0.4-1.5-0.6c-3.8-1.5-7.8-2.8-11.8-4.3
    c-17.1-6.4-34.4-12.8-51.5-19.3c-0.1-7.8-0.4-15.5-0.5-23.3" style="stroke-dasharray: 246, 248; stroke-dashoffset: 0;"></path>
                <path class="line-stand" fill="none" stroke="#FDFDFD" stroke-linecap="round" stroke-linejoin="round" stroke-miterlimit="10" d="M264.1,385.4
    c-0.9-0.4-1.7-0.8-2.6-1.2" style="stroke-dasharray: 3, 5; stroke-dashoffset: 0;"></path>
                <path class="line-stand" fill="none" stroke="#FDFDFD" stroke-linecap="round" stroke-linejoin="round" stroke-miterlimit="10" d="M208,392.5
    c0.8-18.2,1.7-36.6,2.6-54.9c0-0.8,0-1.7,0.1-2.4c0-0.5,0.1-1.4,0.8-1.8c0.1,0,0.3,0,0.4,0c0.4,0,0.6,0.3,0.9,0.4
    c0.5,0.3,0.9,0.5,1.4,0.9c1.8,1.2,3.6,2.3,5.4,3.3c3.7,2.4,7.4,4.7,11.1,7c8.1,4.9,15.9,9.8,23.9,14.7c7.3,4.5,14.4,9,21.7,13.4
    c1.9,1.2,3.7,2.4,5.8,3.5c1,0.6,1.9,1.3,2.8,1.8c0.5,0.3,1,0.6,1.5,0.9c0.4,0.3,1,0.8,1.5,0.6c0.6,0,1-0.6,1.3-1.2
    c0.1-0.4,0.4-1.8,0.4-2.2c0,0,0,0,0-0.1c0.1-0.8,0.3-1.4,0.4-2.2c0.1-0.5,0.3-1.7,0.5-2c0.3-0.4,0.5-0.6,1-0.6l0,0
    c0.1,0,0.3,0,0.4,0.1c0.3,0.1,0.5,0.3,0.8,0.4c0.3,0.1,0.5,0.3,0.8,0.4c0.6,0.4,1,1.2,1.2,1.8c0.3,0.8,0.1,1.5,0,2.3
    c-0.5,5.9-1,11.9-1.7,17.8c-0.1,0.8,0,1.4-0.4,2c-0.1,0.3-0.4,0.5-0.8,0.6l0,0c-0.1,0-0.4,0.1-0.6,0c-0.1,0-1.3-0.5-1.5-0.6
    c-0.5-0.3-1-0.4-1.5-0.6c-1.9-0.9-3.8-1.7-5.8-2.6c-6.1-2.7-12.1-5.4-18.3-8.1" style="stroke-dasharray: 217, 219; stroke-dashoffset: 0;"></path>
                <path class="line-stand" fill="none" stroke="#FDFDFD" stroke-linecap="round" stroke-linejoin="round" stroke-miterlimit="10" d="M322.5,399.1v-0.3
    c0-0.1,0-0.3,0-0.4s0-0.3-0.1-0.4c-0.1-0.4-0.4-0.8-0.9-0.9" style="stroke-dasharray: 3, 5; stroke-dashoffset: 0;"></path>
                <path class="line-stand" fill="none" stroke="#FDFDFD" stroke-linecap="round" stroke-linejoin="round" stroke-miterlimit="10" d="M321.5,400.2
    c0.1,0,0.4,0,0.5-0.1c0.1,0,0.3-0.1,0.3-0.3c0.1-0.3,0.1-0.5,0.3-0.8" style="stroke-dasharray: 2, 4; stroke-dashoffset: 0;"></path>
                <path class="line-stand" fill="none" stroke="#FDFDFD" stroke-linecap="round" stroke-linejoin="round" stroke-miterlimit="10" d="M321.8,400.7
    c-0.1,6.8-0.3,13.6-0.3,20.5c16.9,4.7,33.9,9.2,50.8,13.7c4,0.9,7.9,2,11.9,3.1c0.9,0.4,1.9,0.6,2.9,0.9c0.5,0.1,1,0.3,1.5,0.4
    c0.4,0.1,0.8,0.3,1.3,0.1c0.1,0,0.1-0.1,0.3-0.1c0.5-0.3,0.6-0.8,0.8-1.4c0.1-0.6,0.1-1.3,0.3-1.9c0.1-1.2,0.4-2.4,0.5-3.7
    c0.1-0.6,0.1-1.3,0.3-1.9c0.1-0.6,0-1.3-0.4-1.9c-0.4-0.5-0.9-0.8-1.4-1c-0.5-0.3-1-0.4-1.5-0.6c-2-0.9-4-1.7-6-2.6
    c-3.8-1.7-7.9-3.2-11.8-4.9c-7.9-3.2-15.6-6.5-23.4-9.7c-1.9-0.9-3.7-1.7-5.6-2.4c-0.9-0.4-1.9-0.8-2.8-1.2
    c-0.5-0.3-0.9-0.5-1.4-0.6c-0.6-0.3-0.9-0.4-1.3-1s-0.5-1.3-0.4-1.9s0.1-1.3,0.3-1.9c0.1-1.2,0.3-2.4,0.4-3.7l0.9-7.5
    c0.5-4.9,1.2-9.7,1.7-14.4c0.3-2.4,0.5-4.9,0.8-7.3c0.1-1,0.3-2.3,0.4-3.6c0.1-0.6,0.1-1.3,0.3-1.9c0-0.6,0.1-1.2,0.5-1.7" style="stroke-dasharray: 208, 210; stroke-dashoffset: 0;"></path>
                <path class="line-stand" fill="none" stroke="#FDFDFD" stroke-linecap="round" stroke-linejoin="round" stroke-miterlimit="10" d="M309.8,376.9
    c0.9-8.6,1.7-17.4,2.6-26c0.4-4.3,0.9-8.8,1.3-13.3c0.2-2.2,0.3-4.4,0.6-6.6c0.1-1.2,0.3-2.3,0.4-3.3c0.1-0.8,0.1-2.3,1.3-2.6h0.1
    c0.4,0,1,0.4,1.3,0.5c0.5,0.3,0.9,0.5,1.4,0.6c0.9,0.5,1.9,0.9,2.8,1.4c1.7,0.9,3.6,1.9,5.4,2.8c3.8,1.9,7.7,3.8,11.5,5.8
    c8.2,4,16.2,8.2,24.4,12.1c7.4,3.6,14.7,7.4,22.1,11c1.9,1,3.8,1.9,5.8,2.8c1,0.5,2,1,2.8,1.5c1.3,0.6,2.2-0.1,2.4-1.4
    c0,0,0-0.1,0-0.3c0.3-1.2,0.6-2.4,0.9-3.5c0.1-0.6,0.3-1.2,0.9-1.5c0.3-0.1,0.4-0.1,0.5-0.1l0,0c0.3,0,0.6,0.1,0.9,0.3
    c0.5,0.3,1,0.4,1.4,0.8c0.5,0.5,0.8,1,0.8,1.8c0,0.4-0.4,3.5-0.5,3.8c-0.4,2.7-0.8,5.2-1.2,7.9c-0.1,1.3-0.4,2.7-0.5,3.8
    c-0.1,0.6-0.1,1.3-0.3,1.9c-0.1,0.6-0.4,1.2-1,1.4h-0.1c-0.5,0.1-0.9,0-1.4-0.1c-0.5-0.1-1-0.4-1.5-0.5c-1-0.4-2-0.8-2.9-1
    c-2-0.6-4-1.4-6-2c-7.7-2.7-15.2-5.2-22.9-7.8c-3.7-1.3-7.5-2.6-11.3-3.8c-1.9-0.6-3.6-1.3-5.5-1.9c-0.5-0.1-0.9-0.4-1.4-0.5
    c-0.4-0.1-0.9-0.3-1.3-0.5c-0.5-0.1-0.9-0.3-1.4-0.5c-0.5-0.1-0.9-0.1-1.3,0.4" style="stroke-dasharray: 234, 236; stroke-dashoffset: 0;"></path>
                <path class="line-stand" fill="none" stroke="#FDFDFD" stroke-linecap="round" stroke-linejoin="round" stroke-miterlimit="10" d="M321.7,376.6L317.8,375.9L309.8,376.9L300.1,378.5" style="stroke-dasharray: 22, 24; stroke-dashoffset: 0;"></path>
                <path class="line-stand" fill="none" stroke="#FDFDFD" stroke-linecap="round" stroke-linejoin="round" stroke-miterlimit="10" d="M322.5,399.1
    L322.5,399.1c-0.1,0.5-0.4,0.9-0.9,1.2c0,0,0,0-0.1,0c0,0,0,0-0.1,0l0,0c-0.4,0.1-0.8-0.1-1-0.6c-0.1-0.4-0.1-0.8-0.1-1.2
    c0.1-0.5,0.5-1,1-1.2c0-7,0.1-13.8,0.3-20.8c-7.3,1.2-14.4,2.3-21.7,3.2" style="stroke-dasharray: 49, 51; stroke-dashoffset: 0;"></path>
                <path class="line-stand" fill="none" stroke="#FDFDFD" stroke-linecap="round" stroke-linejoin="round" stroke-miterlimit="10" d="M218.3,417.1L218.7,417.2L220.1,417L220.3,416.8" style="stroke-dasharray: 3, 5; stroke-dashoffset: 0;"></path>
                <path class="line-stand" fill="none" stroke="#FDFDFD" stroke-linecap="round" stroke-linejoin="round" stroke-miterlimit="10" d="M218.9,416.2
    c0.3-0.1,0.4-0.3,0.8-0.4" style="stroke-dasharray: 1, 3; stroke-dashoffset: 0;"></path>
                <path class="line-stand" fill="none" stroke="#FDFDFD" stroke-linecap="round" stroke-linejoin="round" stroke-miterlimit="10" d="M220.3,418.8
    c-0.1,0.1-0.4,0.3-0.5,0.4h-0.1l0,0c-0.6,0.1-1.3-0.3-1.4-1.2c0-0.3,0-0.6,0.1-1s0.3-0.6,0.6-0.9" style="stroke-dasharray: 5, 7; stroke-dashoffset: 0;"></path>
                <path class="line-stand" fill="none" stroke="#FDFDFD" stroke-linecap="round" stroke-linejoin="round" stroke-miterlimit="10" d="M219,392.2
    c-1.4,0.3-2.7,0.4-4,0.6c-0.6,0.1-1.4,0.3-2,0.3c-0.8,0.3-1.3,0.5-1.7,1.2c-0.4,0.6-0.4,1.3-0.4,1.9s0,1.4,0,2
    c0,1.4,0.1,2.8,0.1,4.1c0.1,5.5,0.3,10.9,0.4,16.4c0.1,5.5,0.3,10.9,0.4,16.4c0,1.4,0.1,2.8,0.1,4.1c0,0.6,0,1.4,0,2
    s-0.1,1.3,0.3,1.9c0.1,0.1,0.4,0.3,0.5,0.4c0,0,0,0,0.1,0l0.1,0.1c0.4,0.1,0.8,0.1,1.3,0c1.9-0.4,3.8-0.9,5.8-1.3" style="stroke-dasharray: 66, 68; stroke-dashoffset: 0;"></path>
                <path class="line-stand" fill="none" stroke="#FDFDFD" stroke-linecap="round" stroke-linejoin="round" stroke-miterlimit="10" d="M218.9,416.2
    L218.9,416.2c-0.1,0.4-0.3,0.6-0.3,1" style="stroke-dasharray: 2, 4; stroke-dashoffset: 0;"></path>
                <path class="line-stand" fill="none" stroke="#FDFDFD" stroke-linecap="round" stroke-linejoin="round" stroke-miterlimit="10" d="M261.5,384.2L261.5,384.2L241.2,387.2" style="stroke-dasharray: 21, 23; stroke-dashoffset: 0;"></path>
                <path class="line-stand" fill="none" stroke="#FDFDFD" stroke-linecap="round" stroke-linejoin="round" stroke-miterlimit="10" d="M219.8,419.1L220.1,419.1L220.1,419.1" style="stroke-dasharray: 1, 3; stroke-dashoffset: 0;"></path>
                <path class="line-stand" fill="none" stroke="#FDFDFD" stroke-linecap="round" stroke-linejoin="round" stroke-miterlimit="10" d="M322.5,398.6L321.6,398.3L321.6,398.3" style="stroke-dasharray: 1, 3; stroke-dashoffset: 0;"></path>
                <path class="line-stand" fill="none" stroke="#FDFDFD" stroke-linecap="round" stroke-linejoin="round" stroke-miterlimit="10" d="M208.4,437.9
    c-0.3-0.1-1.3-0.5-1.5-0.6c-0.6-0.5-0.9-1.7-0.9-2.6c0-1.5,0.1-2.8,0.3-4.3c0.1-2.8,0.3-5.9,0.4-8.7c0.3-5.9,0.5-11.6,0.9-17.5v-0.1
    " style="stroke-dasharray: 36, 38; stroke-dashoffset: 0;"></path>
                <path class="line-stand" fill="none" stroke="#FDFDFD" stroke-linecap="round" stroke-linejoin="round" stroke-miterlimit="10" d="M258.9,434
    c0.5-0.4,0.8-0.8,1-1.4c0.1-0.3,0.1-0.6,0.1-0.9c0-0.6,0-1.2,0-1.8c0-2.4,0-4.7-0.1-7.2c0-1.2,0-2.3,0-3.2c0-0.6,0.1-1,0.5-1.5
    c0.3-0.4,0.6-0.8,1.2-0.9c1.8-0.4,3.3-0.6,5.1-1c7.3-1.4,14.3-2.8,21.6-4.1c0.4-0.1,0.8-0.1,1.2-0.3c0.4-0.1,0.9-0.1,1.3-0.3
    c0.1,0,0.3,0,0.4,0c0.3,0,0.5,0.1,0.6,0.3c0.5,0.5,0.5,0.9,0.5,1.5v7.7v3.8c0,0.6,0,1.2,0.5,1.7c0.1,0.1,0.1,0.1,0.3,0.3
    c0.1,0,0.3,0.1,0.4,0.1c0.5,0,0.9-0.1,1.3-0.3c1.3-0.3,2.7-0.6,3.8-0.9c7.7-1.7,15.1-3.2,22.8-4.9" style="stroke-dasharray: 94, 96; stroke-dashoffset: 0;"></path>
                <path class="line-stand" fill="none" stroke="#FDFDFD" stroke-linecap="round" stroke-linejoin="round" stroke-miterlimit="10" d="M322.1,400.1L321.6,400.2" style="stroke-dasharray: 1, 3; stroke-dashoffset: 0;"></path>
                <path class="line-stand" fill="none" stroke="#FDFDFD" stroke-linecap="round" stroke-linejoin="round" stroke-miterlimit="10" d="M320.4,398.6L320.4,398.6" style="stroke-dasharray: 0, 2; stroke-dashoffset: 0;"></path>
                <path class="line-stand" fill="none" stroke="#FDFDFD" stroke-linecap="round" stroke-linejoin="round" stroke-miterlimit="10" d="M220.4,417.1L220.1,417" style="stroke-dasharray: 1, 3; stroke-dashoffset: 0;"></path>
                <path class="line-stand" fill="none" stroke="#FDFDFD" stroke-linecap="round" stroke-linejoin="round" stroke-miterlimit="10" d="M264.1,385.4L264.1,385.4L241.2,388.8" style="stroke-dasharray: 24, 26; stroke-dashoffset: 0;"></path>
            </svg>