<svg class="cart-s" version="1.1" xmlns:sketch="http://www.bohemiancoding.com/sketch/ns" xmlns="http://www.w3.org/2000/svg" xmlns:xlink="http://www.w3.org/1999/xlink" x="0px" y="0px" width="18px" height="14px" viewBox="0 0 18 14" enable-background="new 0 0 18 14" xml:space="preserve">
                <path fill="white" d="M15.754,9.996H5.251L3.282,2H1C0.448,2,0,1.552,0,1s0.448-1,1-1h3.85l1.969,7.996h7.498l1.771-5.257
                    c0.177-0.522,0.739-0.804,1.267-0.628c0.523,0.176,0.805,0.744,0.628,1.267L15.754,9.996z M5,12.5C5,13.328,5.671,14,6.5,14
                    S8,13.328,8,12.5S7.329,11,6.5,11S5,11.672,5,12.5z M13,12.5c0,0.828,0.672,1.5,1.5,1.5s1.5-0.672,1.5-1.5S15.328,11,14.5,11
                    S13,11.672,13,12.5z">
                </path>
              </svg>