<svg class="btn__icon btn__icon--eye" version="1.1" xmlns:sketch="http://www.bohemiancoding.com/sketch/ns" xmlns="http://www.w3.org/2000/svg" xmlns:xlink="http://www.w3.org/1999/xlink" x="0px" y="0px" width="23px" height="15px" viewBox="0 0 23 15" enable-background="new 0 0 23 15" xml:space="preserve">
                    <path fill="#FDFDFD" d="M11.5,15C5.441,15,0,9.906,0,7.5S5.441,0,11.5,0C17.775,0,23,5.445,23,7.5C23,9.843,17.439,15,11.5,15z
                         M11.5,2C6.167,2,2.1,6.564,2,7.513C2.1,8.436,6.166,13,11.5,13c5.271,0,9.359-4.453,9.501-5.521C20.859,6.453,16.771,2,11.5,2z
                         M11.5,4C13.434,4,15,5.567,15,7.5c0,1.934-1.566,3.5-3.5,3.5C9.567,11,8,9.434,8,7.5C8,5.567,9.567,4,11.5,4z"></path>
                </svg>