<svg class="user-s" version="1.1" xmlns:sketch="http://www.bohemiancoding.com/sketch/ns" xmlns="http://www.w3.org/2000/svg" xmlns:xlink="http://www.w3.org/1999/xlink" x="0px" y="0px" width="12px" height="16px" viewBox="0 0 12 16" enable-background="new 0 0 12 16" xml:space="preserve">
                <path sketch:type="MSPage" fill="white" d="M6,8C3.794,8,2,6.206,2,4s1.794-4,4-4c2.206,0,4,1.794,4,4S8.206,8,6,8z M6,2
                    C4.897,2,4,2.897,4,4s0.897,2,2,2c1.103,0,2-0.897,2-2S7.103,2,6,2z M12,15c0-3.309-2.691-6-6-6s-6,2.691-6,6c0,0.553,0.448,1,1,1
                    s1-0.447,1-1c0-2.206,1.794-4,4-4c2.206,0,4,1.794,4,4c0,0.553,0.447,1,1,1S12,15.553,12,15z">
                </path>
              </svg>